<svg width="127" height="28" viewBox="0 0 127 28" fill="none" xmlns="http://www.w3.org/2000/svg">
<path d="M16.56 8.76C16.112 8.76 15.712 8.86133 15.36 9.064C15.0187 9.26667 14.7307 9.56 14.496 9.944C14.2613 10.328 14.0853 10.8027 13.968 11.368C13.8507 11.9333 13.792 12.584 13.792 13.32C13.792 14.0773 13.8507 14.744 13.968 15.32C14.096 15.8853 14.2827 16.36 14.528 16.744C14.7733 17.1173 15.0773 17.4 15.44 17.592C15.8133 17.784 16.2453 17.88 16.736 17.88C17.3227 17.88 17.8187 17.752 18.224 17.496C18.6293 17.24 18.9653 16.8827 19.232 16.424C19.4987 15.9653 19.7013 15.4373 19.84 14.84L21.056 15.368C20.864 16.1467 20.5707 16.8293 20.176 17.416C19.7813 17.992 19.2693 18.44 18.64 18.76C18.0107 19.08 17.2533 19.24 16.368 19.24C15.5253 19.24 14.752 19.1067 14.048 18.84C13.3547 18.5733 12.752 18.184 12.24 17.672C11.728 17.1493 11.3333 16.5253 11.056 15.8C10.7787 15.0747 10.64 14.248 10.64 13.32C10.64 12.392 10.784 11.5653 11.072 10.84C11.36 10.104 11.7547 9.48 12.256 8.968C12.768 8.456 13.3547 8.06667 14.016 7.8C14.688 7.53333 15.408 7.4 16.176 7.4C16.944 7.4 17.5787 7.53867 18.08 7.816C18.592 8.09333 19.0027 8.48267 19.312 8.984C19.6213 9.48533 19.8507 10.072 20 10.744L19.248 10.376L19.552 7.592H20.88V11.368H19.328C19.168 10.8453 18.9653 10.392 18.72 10.008C18.4747 9.61333 18.176 9.30933 17.824 9.096C17.472 8.872 17.0507 8.76 16.56 8.76ZM25.9904 7V17.288C25.9904 17.544 26.0704 17.72 26.2304 17.816C26.401 17.912 26.6197 17.96 26.8864 17.96H26.9344V19H22.2304V17.96H22.2624C22.529 17.96 22.7424 17.912 22.9024 17.816C23.073 17.72 23.1584 17.544 23.1584 17.288V8.696C23.1584 8.57867 23.1264 8.49333 23.0624 8.44C23.009 8.376 22.9237 8.32267 22.8064 8.28C22.689 8.23733 22.5397 8.19467 22.3584 8.152L22.2144 8.12V7H25.9904ZM30.0024 9.384C29.5117 9.384 29.1224 9.272 28.8344 9.048C28.5464 8.81333 28.4024 8.47733 28.4024 8.04C28.4024 7.60267 28.5464 7.272 28.8344 7.048C29.1224 6.81333 29.5117 6.696 30.0024 6.696C30.493 6.696 30.8824 6.81333 31.1704 7.048C31.4584 7.272 31.6024 7.60267 31.6024 8.04C31.6024 8.47733 31.4584 8.81333 31.1704 9.048C30.8824 9.272 30.493 9.384 30.0024 9.384ZM31.5064 10.504V17.288C31.5064 17.544 31.5864 17.72 31.7464 17.816C31.917 17.912 32.1357 17.96 32.4024 17.96H32.4344V19H27.7304V17.96H27.7624C28.029 17.96 28.2424 17.912 28.4024 17.816C28.573 17.72 28.6584 17.544 28.6584 17.288V12.216C28.6584 12.0453 28.5944 11.928 28.4664 11.864C28.3384 11.8 28.1357 11.7413 27.8584 11.688L27.7304 11.656V10.504H31.5064ZM33.2616 19V17.96H33.2936C33.5603 17.96 33.7736 17.912 33.9336 17.816C34.0936 17.72 34.1736 17.5333 34.1736 17.256V12.216C34.1736 12.1093 34.147 12.024 34.0936 11.96C34.0403 11.896 33.955 11.848 33.8376 11.816C33.7203 11.7733 33.571 11.7307 33.3896 11.688L33.2616 11.656V10.504H36.7496L36.8936 12.44L37.0216 12.424V17.816C37.0216 17.848 37.059 17.8747 37.1336 17.896C37.219 17.9173 37.3096 17.9333 37.4056 17.944C37.5123 17.9547 37.6083 17.96 37.6936 17.96H37.7576V19H33.2616ZM43.0216 19H38.7176V17.96H38.7656C38.8616 17.96 38.963 17.9547 39.0696 17.944C39.1763 17.9333 39.267 17.9173 39.3416 17.896C39.4163 17.8747 39.4536 17.848 39.4536 17.816V13.08C39.4536 12.8347 39.427 12.632 39.3736 12.472C39.331 12.3013 39.251 12.1787 39.1336 12.104C39.027 12.0187 38.867 11.976 38.6536 11.976C38.4403 11.976 38.2216 12.04 37.9976 12.168C37.7843 12.2853 37.5656 12.4827 37.3416 12.76C37.1283 13.0267 36.899 13.384 36.6536 13.832L36.6696 12.472C36.915 12.0347 37.1923 11.6613 37.5016 11.352C37.8216 11.032 38.1736 10.7867 38.5576 10.616C38.9416 10.4347 39.3576 10.344 39.8056 10.344C40.3283 10.344 40.7763 10.4453 41.1496 10.648C41.523 10.8507 41.8056 11.1493 41.9976 11.544C42.2003 11.928 42.3016 12.4187 42.3016 13.016V17.816C42.3016 17.848 42.339 17.8747 42.4136 17.896C42.4883 17.9173 42.579 17.9333 42.6856 17.944C42.7923 17.9547 42.8936 17.96 42.9896 17.96H43.0216V19ZM48.5096 19H43.9976V17.96H44.0456C44.1416 17.96 44.2376 17.9547 44.3336 17.944C44.4403 17.9333 44.531 17.9173 44.6056 17.896C44.6803 17.8747 44.7176 17.848 44.7176 17.816V13.08C44.7176 12.8347 44.691 12.632 44.6376 12.472C44.595 12.3013 44.515 12.1787 44.3976 12.104C44.291 12.0187 44.1363 11.976 43.9336 11.976C43.699 11.976 43.475 12.0453 43.2616 12.184C43.0483 12.312 42.8296 12.5093 42.6056 12.776C42.3923 13.0427 42.163 13.384 41.9176 13.8L41.9496 12.472C42.195 12.0347 42.4723 11.656 42.7816 11.336C43.1016 11.016 43.4536 10.7707 43.8376 10.6C44.2216 10.4293 44.6376 10.344 45.0856 10.344C45.5976 10.344 46.0403 10.4453 46.4136 10.648C46.787 10.8507 47.0696 11.1493 47.2616 11.544C47.4643 11.928 47.5656 12.4187 47.5656 13.016V17.256C47.5656 17.5333 47.6456 17.72 47.8056 17.816C47.9763 17.912 48.195 17.96 48.4616 17.96H48.5096V19ZM54.9081 13.864V14.904C54.4708 14.968 54.0921 15.048 53.7721 15.144C53.4521 15.2293 53.1801 15.3307 52.9561 15.448C52.7428 15.5547 52.5721 15.6773 52.4441 15.816C52.3161 15.9547 52.2201 16.1093 52.1561 16.28C52.1028 16.44 52.0761 16.616 52.0761 16.808C52.0761 17.064 52.1188 17.2773 52.2041 17.448C52.2895 17.608 52.4121 17.7253 52.5721 17.8C52.7321 17.8747 52.9188 17.912 53.1321 17.912C53.3668 17.912 53.5855 17.8533 53.7881 17.736C53.9908 17.6187 54.1828 17.4427 54.3641 17.208C54.5561 16.9627 54.7375 16.664 54.9081 16.312L54.9721 17.272C54.7801 17.6987 54.5508 18.0507 54.2841 18.328C54.0175 18.6053 53.7081 18.8187 53.3561 18.968C53.0148 19.1067 52.6095 19.176 52.1401 19.176C51.5641 19.176 51.0735 19.096 50.6681 18.936C50.2628 18.7653 49.9535 18.5147 49.7401 18.184C49.5375 17.8533 49.4361 17.4373 49.4361 16.936C49.4361 16.4773 49.5375 16.088 49.7401 15.768C49.9535 15.4373 50.2841 15.1547 50.7321 14.92C51.1801 14.6853 51.7455 14.4827 52.4281 14.312C53.1215 14.1413 53.9481 13.992 54.9081 13.864ZM54.9081 19L54.7801 17.304L54.6361 17.32V12.776C54.6361 12.5093 54.5935 12.2907 54.5081 12.12C54.4335 11.9493 54.3055 11.8267 54.1241 11.752C53.9428 11.6667 53.6975 11.624 53.3881 11.624C52.9295 11.624 52.5508 11.6987 52.2521 11.848C51.9535 11.9867 51.7401 12.152 51.6121 12.344C51.5268 12.2693 51.4788 12.1893 51.4681 12.104C51.4575 12.008 51.4788 11.9173 51.5321 11.832C51.5961 11.7467 51.6868 11.672 51.8041 11.608C51.9215 11.544 52.0655 11.5067 52.2361 11.496V13.288H49.9641V11.368C50.1241 11.2507 50.3641 11.112 50.6841 10.952C51.0148 10.792 51.4255 10.6533 51.9161 10.536C52.4175 10.408 52.9988 10.344 53.6601 10.344C54.2255 10.344 54.7375 10.3973 55.1961 10.504C55.6655 10.6107 56.0655 10.776 56.3961 11C56.7268 11.224 56.9775 11.512 57.1481 11.864C57.3295 12.2053 57.4201 12.616 57.4201 13.096V17.352C57.4201 17.4693 57.4521 17.56 57.5161 17.624C57.5801 17.6773 57.6708 17.7253 57.7881 17.768C57.9161 17.8 58.0708 17.8267 58.2521 17.848L58.3481 17.88V19H54.9081ZM65.185 8.76C64.737 8.76 64.337 8.86133 63.985 9.064C63.6437 9.26667 63.3557 9.56 63.121 9.944C62.8863 10.328 62.7103 10.8027 62.593 11.368C62.4757 11.9333 62.417 12.584 62.417 13.32C62.417 14.0773 62.4757 14.744 62.593 15.32C62.721 15.8853 62.9077 16.36 63.153 16.744C63.3983 17.1173 63.7023 17.4 64.065 17.592C64.4383 17.784 64.8703 17.88 65.361 17.88C65.9477 17.88 66.4437 17.752 66.849 17.496C67.2543 17.24 67.5903 16.8827 67.857 16.424C68.1237 15.9653 68.3263 15.4373 68.465 14.84L69.681 15.368C69.489 16.1467 69.1957 16.8293 68.801 17.416C68.4063 17.992 67.8943 18.44 67.265 18.76C66.6357 19.08 65.8783 19.24 64.993 19.24C64.1503 19.24 63.377 19.1067 62.673 18.84C61.9797 18.5733 61.377 18.184 60.865 17.672C60.353 17.1493 59.9583 16.5253 59.681 15.8C59.4037 15.0747 59.265 14.248 59.265 13.32C59.265 12.392 59.409 11.5653 59.697 10.84C59.985 10.104 60.3797 9.48 60.881 8.968C61.393 8.456 61.9797 8.06667 62.641 7.8C63.313 7.53333 64.033 7.4 64.801 7.4C65.569 7.4 66.2037 7.53867 66.705 7.816C67.217 8.09333 67.6277 8.48267 67.937 8.984C68.2463 9.48533 68.4757 10.072 68.625 10.744L67.873 10.376L68.177 7.592H69.505V11.368H67.953C67.793 10.8453 67.5903 10.392 67.345 10.008C67.0997 9.61333 66.801 9.30933 66.449 9.096C66.097 8.872 65.6757 8.76 65.185 8.76ZM73.018 9.384C72.5273 9.384 72.138 9.272 71.85 9.048C71.562 8.81333 71.418 8.47733 71.418 8.04C71.418 7.60267 71.562 7.272 71.85 7.048C72.138 6.81333 72.5273 6.696 73.018 6.696C73.5087 6.696 73.898 6.81333 74.186 7.048C74.474 7.272 74.618 7.60267 74.618 8.04C74.618 8.47733 74.474 8.81333 74.186 9.048C73.898 9.272 73.5087 9.384 73.018 9.384ZM74.522 10.504V17.288C74.522 17.544 74.602 17.72 74.762 17.816C74.9327 17.912 75.1513 17.96 75.418 17.96H75.45V19H70.746V17.96H70.778C71.0447 17.96 71.258 17.912 71.418 17.816C71.5887 17.72 71.674 17.544 71.674 17.288V12.216C71.674 12.0453 71.61 11.928 71.482 11.864C71.354 11.8 71.1513 11.7413 70.874 11.688L70.746 11.656V10.504H74.522ZM75.9253 11.752V10.584H76.0213C76.2879 10.584 76.5119 10.568 76.6933 10.536C76.8853 10.4933 77.0293 10.4133 77.1253 10.296C77.2319 10.168 77.2853 9.98667 77.2853 9.752L78.9813 10.504H82.3733V11.752H75.9253ZM80.0373 16.216C80.0373 16.6107 80.0853 16.92 80.1813 17.144C80.2879 17.3573 80.4319 17.512 80.6133 17.608C80.8053 17.6933 81.0399 17.736 81.3173 17.736C81.5519 17.736 81.7706 17.7147 81.9733 17.672C82.1759 17.6293 82.3146 17.5973 82.3893 17.576V18.904C82.2826 18.9467 82.1333 18.984 81.9413 19.016C81.7599 19.0587 81.5466 19.096 81.3013 19.128C81.0666 19.16 80.8053 19.176 80.5173 19.176C79.8879 19.176 79.3173 19.096 78.8053 18.936C78.3039 18.7653 77.9093 18.472 77.6213 18.056C77.3333 17.64 77.1893 17.064 77.1893 16.328V10.808L77.2853 10.68V8.136H80.0373V16.216ZM89.24 17.304L88.472 18.68L87.608 19.832L84.248 12.248C84.1733 12.0773 84.0933 11.9493 84.008 11.864C83.9333 11.7787 83.8373 11.72 83.72 11.688C83.6027 11.6453 83.4533 11.624 83.272 11.624H83.208V10.504H88.056V11.608H87.992C87.8213 11.608 87.656 11.6133 87.496 11.624C87.336 11.6347 87.2027 11.6507 87.096 11.672C87 11.6827 86.952 11.704 86.952 11.736L89.24 17.304ZM89.224 18.712C88.904 19.448 88.5893 20.072 88.28 20.584C87.9813 21.1067 87.672 21.528 87.352 21.848C87.0427 22.1787 86.7013 22.4187 86.328 22.568C85.9653 22.7173 85.56 22.792 85.112 22.792C84.7707 22.792 84.4667 22.7547 84.2 22.68C83.944 22.616 83.752 22.5413 83.624 22.456V20.456C83.6667 20.4667 83.768 20.504 83.928 20.568C84.0987 20.632 84.3067 20.6907 84.552 20.744C84.7973 20.7973 85.0587 20.824 85.336 20.824C85.6133 20.824 85.864 20.7867 86.088 20.712C86.3227 20.648 86.5413 20.5253 86.744 20.344C86.9467 20.1733 87.1387 19.9333 87.32 19.624C87.512 19.3147 87.6933 18.9253 87.864 18.456L88.28 17.752L90.76 11.944C90.76 11.88 90.712 11.8267 90.616 11.784C90.5307 11.7307 90.408 11.688 90.248 11.656C90.0987 11.624 89.9387 11.608 89.768 11.608H89.704V10.504H93.064V11.624H92.984C92.8347 11.624 92.7013 11.6507 92.584 11.704C92.4667 11.7467 92.3547 11.8267 92.248 11.944C92.152 12.0507 92.0613 12.2 91.976 12.392L89.224 18.712Z" fill="white"/>
<path d="M93 18.8147C93 20.7204 93.7779 22.548 95.1625 23.8955C96.547 25.243 98.425 26 100.383 26H118.841C120.281 26.0015 121.676 25.5113 122.783 24.6146C123.89 23.718 124.639 22.4718 124.899 21.0932C125.159 19.7146 124.914 18.2909 124.206 17.0701C123.498 15.8493 122.373 14.9089 121.026 14.4125C121.331 13.5698 121.387 12.661 121.189 11.7889C120.99 10.9167 120.545 10.1158 119.904 9.47674C119.263 8.83767 118.451 8.38585 117.559 8.1723C116.668 7.95876 115.733 7.992 114.86 8.26827C114.296 6.16062 112.911 4.34957 110.998 3.21863C109.085 2.08769 106.795 1.72567 104.613 2.20923C102.431 2.69279 100.528 3.98397 99.3068 5.80933C98.0857 7.63469 97.6426 9.85091 98.0714 11.9887C96.5957 12.4626 95.3112 13.3775 94.4007 14.603C93.4902 15.8286 93.0001 17.3024 93 18.8147Z" stroke="#35A0E4" stroke-width="4" stroke-linecap="round" stroke-linejoin="round"/>
</svg>
